<svg width="158" height="38" viewBox="0 0 158 38" fill="none" xmlns="http://www.w3.org/2000/svg">
<g clip-path="url(#clip0_2_1511)" filter="url(#filter0_d_2_1511)">
<path d="M21.7769 29.0954C20.9923 29.213 20.1881 29.274 19.3688 29.274C18.6049 29.274 17.854 29.2209 17.12 29.1184V0.155579C17.854 0.0530799 18.6049 0 19.3688 0C20.4128 0 21.4327 0.0991514 22.4183 0.288107L22.2425 0.256297L21.7769 0.178956V29.0954Z" fill="white"/>
<path d="M21.8259 29.088C21.914 29.0744 22.0019 29.0603 22.0895 29.0454L21.8259 29.088Z" fill="#273A34"/>
<path d="M22.4421 28.9813C24.2181 28.638 25.8828 28.003 27.3789 27.1313C27.3698 27.1357 27.3648 27.1381 27.3648 27.1381V2.13456C25.8725 1.26695 24.2126 0.634903 22.4421 0.292694V28.9813Z" fill="white"/>
<path d="M27.9596 2.49838L28.0302 2.54455V26.73C32.0799 24.094 34.7378 19.6611 34.7378 14.637C34.7378 9.58374 32.049 5.12858 27.9596 2.49838Z" fill="white"/>
<path d="M16.6204 0.233398C16.6034 0.236327 16.5863 0.239281 16.5693 0.242263L16.6204 0.233398Z" fill="#273A34"/>
<path d="M16.4547 0.262756C14.7397 0.576244 13.126 1.16122 11.6649 1.96889V27.305L11.5588 27.2459C13.066 28.0944 14.7384 28.7049 16.5191 29.0229L16.4547 29.0111V0.262756Z" fill="white"/>
<path d="M10.9997 26.9156V2.35849C6.78619 4.9688 4 9.49302 4 14.637C4 19.781 6.78619 24.3051 10.9997 26.9156Z" fill="white"/>
<path d="M11.0911 2.30235C11.1115 2.28997 11.1339 2.27635 11.1568 2.26245C11.1349 2.27571 11.113 2.28901 11.0911 2.30235Z" fill="#273A34"/>
<path fill-rule="evenodd" clip-rule="evenodd" d="M20.6426 4.49684C21.707 4.4345 22.6892 4.37203 23.8025 4.51217C25.0732 4.6726 24.9449 6.36146 24.3098 6.6638C23.7203 6.94447 23.1638 6.89747 23.1638 6.89747H20.9045C19.2606 6.98654 19.2008 4.58098 20.6426 4.49684Z" fill="#273A34"/>
<path fill-rule="evenodd" clip-rule="evenodd" d="M26.0607 8.34321C27.1251 8.28085 28.1074 8.21851 29.2207 8.35904C30.4915 8.51947 30.3631 10.2083 29.728 10.5108C29.1387 10.7915 28.582 10.7445 28.582 10.7445H26.3227C24.6789 10.8335 24.619 8.42785 26.0607 8.34321Z" fill="#273A34"/>
<path fill-rule="evenodd" clip-rule="evenodd" d="M26.0607 13.4495C27.1251 13.3871 28.1074 13.3248 29.2207 13.4653C30.4915 13.6252 30.3631 15.3146 29.728 15.617C29.1387 15.8977 28.582 15.8506 28.582 15.8506H26.3227C24.6789 15.9397 24.619 13.5341 26.0607 13.4495Z" fill="#273A34"/>
<path fill-rule="evenodd" clip-rule="evenodd" d="M26.0607 15.9833C27.1251 15.921 28.1074 15.8586 29.2207 15.9986C30.4915 16.159 30.3631 17.8478 29.728 18.1504C29.1387 18.431 28.582 18.3846 28.582 18.3846H26.3227C24.6789 18.4731 24.619 16.0678 26.0607 15.9833Z" fill="#273A34"/>
<path fill-rule="evenodd" clip-rule="evenodd" d="M26.0607 18.517C27.1251 18.4547 28.1074 18.3923 29.2207 18.5324C30.4915 18.6927 30.3631 20.3816 29.728 20.6841C29.1387 20.9648 28.582 20.9177 28.582 20.9177H26.3227C24.6789 21.0068 24.619 18.6011 26.0607 18.517Z" fill="#273A34"/>
<path fill-rule="evenodd" clip-rule="evenodd" d="M26.0607 21.0743C27.1251 21.0119 28.1074 20.9496 29.2207 21.0896C30.4915 21.25 30.3631 22.9389 29.728 23.2413C29.1387 23.5219 28.582 23.4749 28.582 23.4749H26.3227C24.6789 23.564 24.619 21.1583 26.0607 21.0743Z" fill="#273A34"/>
<path fill-rule="evenodd" clip-rule="evenodd" d="M20.6426 12.2127C21.707 12.1504 22.6892 12.088 23.8025 12.2286C25.0732 12.389 24.9449 14.0779 24.3098 14.3803C23.7203 14.661 23.1638 14.614 23.1638 14.614H20.9045C19.2606 14.7032 19.2008 12.2974 20.6426 12.2127Z" fill="#273A34"/>
<path fill-rule="evenodd" clip-rule="evenodd" d="M20.6426 14.7464C21.707 14.6846 22.6892 14.6221 23.8025 14.7623C25.0732 14.9226 24.9449 16.6116 24.3098 16.9139C23.7203 17.1946 23.1638 17.1476 23.1638 17.1476H20.9045C19.2606 17.2367 19.2008 14.8311 20.6426 14.7464Z" fill="#273A34"/>
<path fill-rule="evenodd" clip-rule="evenodd" d="M20.6426 22.3324C21.707 22.2701 22.6892 22.2076 23.8025 22.3477C25.0732 22.508 24.9449 24.197 24.3098 24.4994C23.7203 24.78 23.1638 24.733 23.1638 24.733H20.9045C19.2606 24.8221 19.2008 22.4166 20.6426 22.3324Z" fill="#273A34"/>
<path fill-rule="evenodd" clip-rule="evenodd" d="M15.1786 4.49684C16.2425 4.4345 17.2248 4.37203 18.338 4.51217C19.6089 4.6726 19.4805 6.36146 18.8459 6.6638C18.2565 6.94447 17.6998 6.89747 17.6998 6.89747H15.4406C13.7962 6.98654 13.7369 4.58098 15.1786 4.49684Z" fill="#273A34"/>
<path fill-rule="evenodd" clip-rule="evenodd" d="M15.1786 12.2127C16.2425 12.1504 17.2248 12.088 18.338 12.2286C19.6089 12.389 19.4805 14.0779 18.8459 14.3803C18.2565 14.661 17.6998 14.614 17.6998 14.614H15.4406C13.7962 14.7032 13.7369 12.2974 15.1786 12.2127Z" fill="#273A34"/>
<path fill-rule="evenodd" clip-rule="evenodd" d="M15.1786 14.7464C16.2425 14.6846 17.2248 14.6221 18.338 14.7623C19.6089 14.9226 19.4805 16.6116 18.8459 16.9139C18.2565 17.1946 17.6998 17.1476 17.6998 17.1476H15.4406C13.7962 17.2367 13.7369 14.8311 15.1786 14.7464Z" fill="#273A34"/>
<path fill-rule="evenodd" clip-rule="evenodd" d="M15.1786 22.3324C16.2425 22.2701 17.2248 22.2076 18.338 22.3477C19.6089 22.508 19.4805 24.197 18.8459 24.4994C18.2565 24.78 17.6998 24.733 17.6998 24.733H15.4406C13.7962 24.8221 13.7369 22.4166 15.1786 22.3324Z" fill="#273A34"/>
<path fill-rule="evenodd" clip-rule="evenodd" d="M26.0607 5.79564C27.1251 5.7333 28.1074 5.67083 29.2207 5.81149C30.4915 5.9714 30.3631 7.66027 29.728 7.96262C29.1387 8.24329 28.582 8.19677 28.582 8.19677H26.3227C24.6789 8.28586 24.619 5.8803 26.0607 5.79564Z" fill="#273A34"/>
<path fill-rule="evenodd" clip-rule="evenodd" d="M9.76003 8.20312C10.8244 8.14078 11.8067 8.07844 12.9194 8.21897C14.1902 8.37938 14.0624 10.0682 13.4272 10.3707C12.8379 10.6514 12.2812 10.6044 12.2812 10.6044H10.0219C8.37803 10.6934 8.31829 8.28776 9.76003 8.20312Z" fill="#273A34"/>
<path fill-rule="evenodd" clip-rule="evenodd" d="M9.76003 10.7314C10.8244 10.6691 11.8067 10.6068 12.9194 10.7473C14.1902 10.9072 14.0624 12.5966 13.4272 12.899C12.8379 13.1797 12.2812 13.1326 12.2812 13.1326H10.0219C8.37803 13.2218 8.31829 10.8161 9.76003 10.7314Z" fill="#273A34"/>
<path fill-rule="evenodd" clip-rule="evenodd" d="M9.76003 13.2652C10.8244 13.2028 11.8067 13.1405 12.9194 13.2805C14.1902 13.4409 14.0624 15.1297 13.4272 15.4323C12.8379 15.7129 12.2812 15.6664 12.2812 15.6664H10.0219C8.37803 15.755 8.31829 13.3498 9.76003 13.2652Z" fill="#273A34"/>
<path fill-rule="evenodd" clip-rule="evenodd" d="M9.76003 18.517C10.8244 18.4547 11.8067 18.3923 12.9194 18.5324C14.1902 18.6927 14.0624 20.3816 13.4272 20.6841C12.8379 20.9648 12.2812 20.9177 12.2812 20.9177H10.0219C8.37803 21.0068 8.31829 18.6011 9.76003 18.517Z" fill="#273A34"/>
<path fill-rule="evenodd" clip-rule="evenodd" d="M9.76003 21.0743C10.8244 21.0119 11.8067 20.9496 12.9194 21.0896C14.1902 21.25 14.0624 22.9389 13.4272 23.2413C12.8379 23.5219 12.2812 23.4749 12.2812 23.4749H10.0219C8.37803 23.564 8.31829 21.1583 9.76003 21.0743Z" fill="#273A34"/>
<path fill-rule="evenodd" clip-rule="evenodd" d="M9.76003 5.66887C10.8244 5.60653 11.8067 5.54406 12.9194 5.68472C14.1902 5.84463 14.0624 7.53349 13.4272 7.83583C12.8379 8.11651 12.2812 8.07 12.2812 8.07H10.0219C8.37803 8.15909 8.31829 5.75353 9.76003 5.66887Z" fill="#273A34"/>
<g filter="url(#filter1_d_2_1511)">
<path d="M49.8985 22.0716C48.583 22.0716 47.4319 21.8703 46.4452 21.4676C45.4585 21.0499 44.6911 20.4607 44.143 19.7C43.6105 18.9394 43.3442 18.0594 43.3442 17.06V16.7469C43.3442 16.6424 43.3756 16.5603 43.4381 16.5007C43.5008 16.441 43.5869 16.4111 43.6966 16.4111H47.3378C47.4475 16.4111 47.5336 16.441 47.5963 16.5007C47.6588 16.5603 47.6902 16.6424 47.6902 16.7469V16.881C47.6902 17.2987 47.9173 17.6716 48.3715 17.9997C48.8413 18.3129 49.4599 18.4696 50.2273 18.4696C50.8069 18.4696 51.2218 18.3577 51.4724 18.134C51.7229 17.8953 51.8483 17.6343 51.8483 17.3509C51.8483 17.0227 51.6917 16.7766 51.3784 16.6126C51.0652 16.4484 50.4935 16.2471 49.6636 16.0084L48.9823 15.8294C47.4319 15.382 46.132 14.7854 45.0826 14.0396C44.0333 13.2939 43.5086 12.2125 43.5086 10.7955C43.5086 9.85584 43.7749 9.02804 44.3074 8.3121C44.8399 7.58124 45.5681 7.02191 46.4921 6.6341C47.4319 6.2463 48.4811 6.0524 49.64 6.0524C50.8616 6.0524 51.9658 6.26867 52.9523 6.70123C53.9548 7.13377 54.7378 7.74531 55.3016 8.53583C55.8811 9.32634 56.1707 10.2287 56.1707 11.243V11.4443C56.1707 11.5488 56.1395 11.6308 56.0768 11.6905C56.0141 11.7501 55.928 11.7799 55.8184 11.7799H52.1771C52.0675 11.7799 51.9814 11.7501 51.9187 11.6905C51.8561 11.6308 51.8248 11.5488 51.8248 11.4443V11.422C51.8248 10.9745 51.6134 10.5718 51.1906 10.2138C50.7676 9.84093 50.1961 9.65448 49.4756 9.65448C48.9745 9.65448 48.575 9.75144 48.2776 9.94534C47.9956 10.1392 47.8547 10.4077 47.8547 10.7508C47.8547 11.0193 47.9564 11.2504 48.16 11.4443C48.3793 11.6233 48.7082 11.8023 49.1467 11.9813C49.5853 12.1454 50.2586 12.3616 51.167 12.6301C51.2923 12.6749 51.8404 12.8389 52.8115 13.1223C53.7982 13.3908 54.6203 13.8905 55.2781 14.6213C55.9358 15.3373 56.2648 16.2099 56.2648 17.239C56.2648 18.2383 55.9985 19.1034 55.466 19.8343C54.9335 20.5503 54.1897 21.1021 53.2343 21.4899C52.279 21.8777 51.167 22.0716 49.8985 22.0716Z" fill="white"/>
</g>
<g filter="url(#filter2_d_2_1511)">
<path d="M69.3865 15.2479C69.4335 15.576 69.457 15.9116 69.457 16.2546C69.457 16.4933 69.4491 16.6797 69.4335 16.8139C69.4335 17.0227 69.316 17.1271 69.0811 17.1271H62.0335C61.9708 17.1271 61.9396 17.157 61.9396 17.2166C61.9396 17.3509 62.0022 17.5074 62.1274 17.6864C62.2842 17.94 62.5582 18.1563 62.9497 18.3353C63.3568 18.4994 63.811 18.5814 64.3122 18.5814C64.735 18.5814 65.1267 18.5217 65.4868 18.4024C65.847 18.2831 66.1524 18.1116 66.403 17.8879C66.4813 17.8281 66.5596 17.7983 66.6379 17.7983C66.7476 17.7983 66.8337 17.8431 66.8964 17.9326L68.6817 20.1027C68.7444 20.1774 68.7757 20.2594 68.7757 20.3489C68.7757 20.4384 68.7366 20.513 68.6583 20.5726C68.11 21.0797 67.4289 21.4601 66.6144 21.7137C65.8 21.9523 64.923 22.0716 63.9834 22.0716C62.5269 22.0716 61.2817 21.7807 60.2481 21.199C59.2144 20.6174 58.4628 19.7896 57.993 18.7157C57.6484 17.94 57.4761 17.1047 57.4761 16.2099C57.4761 15.2701 57.6171 14.4349 57.8989 13.704C58.3218 12.5705 59.0187 11.683 59.9898 11.0416C60.9607 10.4003 62.104 10.0796 63.4195 10.0796C64.4218 10.0796 65.3458 10.3033 66.1915 10.7508C67.053 11.1982 67.7577 11.8172 68.3059 12.6078C68.8696 13.3834 69.2299 14.2634 69.3865 15.2479ZM63.3961 13.6817C62.754 13.6817 62.3076 13.98 62.0571 14.5766L61.963 14.8227C61.9474 14.8674 61.9552 14.9047 61.9866 14.9346C62.0179 14.9494 62.0491 14.957 62.0805 14.957H64.7586C64.8213 14.957 64.8525 14.9271 64.8525 14.8674C64.8525 14.8079 64.8291 14.7109 64.7821 14.5766C64.7038 14.2931 64.5393 14.0769 64.2888 13.9278C64.0539 13.7637 63.7563 13.6817 63.3961 13.6817Z" fill="white"/>
</g>
<g filter="url(#filter3_d_2_1511)">
<path d="M85.0733 10.0796C86.3105 10.0796 87.2736 10.445 87.9627 11.1759C88.6518 11.9067 88.9964 12.9359 88.9964 14.2634V21.557C88.9964 21.6614 88.965 21.7434 88.9025 21.8031C88.8398 21.8629 88.7537 21.8926 88.644 21.8926H84.9323C84.8226 21.8926 84.7365 21.8629 84.674 21.8031C84.6113 21.7434 84.5799 21.6614 84.5799 21.557V15.1807C84.5799 14.7331 84.4625 14.3753 84.2276 14.1068C84.0083 13.8234 83.7186 13.6817 83.3583 13.6817C82.9824 13.6817 82.677 13.8234 82.4421 14.1068C82.2072 14.3753 82.0898 14.7331 82.0898 15.1807V21.557C82.0898 21.6614 82.0584 21.7434 81.9959 21.8031C81.9332 21.8629 81.8471 21.8926 81.7374 21.8926H78.0257C77.916 21.8926 77.8299 21.8629 77.7672 21.8031C77.7047 21.7434 77.6733 21.6614 77.6733 21.557V15.1807C77.6733 14.7331 77.5481 14.3753 77.2974 14.1068C77.0625 13.8234 76.7493 13.6817 76.3578 13.6817C76.0133 13.6817 75.7235 13.7861 75.4886 13.9949C75.2693 14.1888 75.1284 14.4573 75.0657 14.8003C75.0501 14.8301 75.0422 14.8749 75.0422 14.9346V21.557C75.0422 21.6614 75.011 21.7434 74.9483 21.8031C74.8856 21.8629 74.7995 21.8926 74.6898 21.8926H70.9781C70.8686 21.8926 70.7823 21.8629 70.7198 21.8031C70.6571 21.7434 70.6257 21.6614 70.6257 21.557V10.5942C70.6257 10.4898 70.6571 10.4077 70.7198 10.3481C70.7823 10.2884 70.8686 10.2586 70.9781 10.2586H74.6898C74.7995 10.2586 74.8856 10.2884 74.9483 10.3481C75.011 10.4077 75.0422 10.4898 75.0422 10.5942V11.7128C75.0422 11.7725 75.0579 11.8023 75.0893 11.8023C75.1205 11.8023 75.1518 11.7799 75.1832 11.7352C75.7784 10.6315 76.7807 10.0796 78.1901 10.0796C78.9888 10.0796 79.6857 10.2586 80.2809 10.6165C80.8917 10.9596 81.3537 11.4593 81.6669 12.1155C81.7139 12.1901 81.761 12.1827 81.8079 12.0932C82.1211 11.422 82.5518 10.9223 83.0999 10.5942C83.6637 10.2511 84.3215 10.0796 85.0733 10.0796Z" fill="white"/>
</g>
<g filter="url(#filter4_d_2_1511)">
<path d="M102.427 13.6145C102.662 14.3603 102.78 15.1956 102.78 16.1203C102.78 17.1943 102.607 18.1489 102.263 18.9841C101.887 19.894 101.3 20.6397 100.501 21.2214C99.7024 21.7883 98.747 22.0716 97.6351 22.0716C96.4918 22.0716 95.6461 21.7286 95.098 21.0424C95.0666 21.0126 95.0353 21.0051 95.0039 21.0201C94.9726 21.0201 94.957 21.0424 94.957 21.0871V25.5843C94.957 25.6886 94.9256 25.7707 94.8631 25.8303C94.8004 25.89 94.7143 25.9199 94.6046 25.9199H90.8929C90.7832 25.9199 90.6971 25.89 90.6344 25.8303C90.5719 25.7707 90.5405 25.6886 90.5405 25.5843V10.5942C90.5405 10.4898 90.5719 10.4077 90.6344 10.3481C90.6971 10.2884 90.7832 10.2586 90.8929 10.2586H94.6046C94.7143 10.2586 94.8004 10.2884 94.8631 10.3481C94.9256 10.4077 94.957 10.4898 94.957 10.5942V11.2654C94.957 11.3101 94.9726 11.3399 95.0039 11.3549C95.0353 11.3698 95.0666 11.3549 95.098 11.3101C95.6774 10.4898 96.5857 10.0796 97.823 10.0796C98.8723 10.0796 99.812 10.4003 100.642 11.0416C101.488 11.6681 102.083 12.5257 102.427 13.6145ZM97.7995 17.7313C98.0344 17.2987 98.1518 16.7393 98.1518 16.0533C98.1518 15.382 98.0344 14.8376 97.7995 14.42C97.5176 13.9278 97.1026 13.6817 96.5545 13.6817C96.0062 13.6817 95.5913 13.9352 95.3093 14.4424C95.0744 14.86 94.957 15.397 94.957 16.0533C94.957 16.7691 95.0822 17.3434 95.3329 17.776C95.6147 18.2383 96.022 18.4696 96.5545 18.4696C97.1182 18.4696 97.5332 18.2234 97.7995 17.7313Z" fill="white"/>
</g>
<g filter="url(#filter5_d_2_1511)">
<path d="M109.853 22.0716C108.365 22.0716 107.105 21.6913 106.071 20.9306C105.053 20.1699 104.38 19.1407 104.051 17.8431C103.894 17.3061 103.816 16.7096 103.816 16.0533C103.816 15.3224 103.91 14.6586 104.098 14.062C104.474 12.824 105.163 11.8545 106.165 11.1535C107.183 10.4376 108.42 10.0796 109.877 10.0796C111.333 10.0796 112.555 10.4376 113.541 11.1535C114.544 11.8545 115.233 12.8091 115.609 14.0173C115.797 14.6437 115.891 15.3074 115.891 16.0084C115.891 16.5753 115.828 17.142 115.703 17.7089C115.374 19.0513 114.692 20.1177 113.659 20.9083C112.641 21.6839 111.372 22.0716 109.853 22.0716ZM109.853 18.4696C110.26 18.4696 110.589 18.3427 110.84 18.0891C111.09 17.8207 111.263 17.4701 111.357 17.0377C111.419 16.7543 111.451 16.4187 111.451 16.0309C111.451 15.6879 111.412 15.3447 111.333 15.0017C111.098 14.1217 110.605 13.6817 109.853 13.6817C109.07 13.6817 108.577 14.1217 108.373 15.0017C108.295 15.2553 108.256 15.5983 108.256 16.0309C108.256 16.4187 108.287 16.7543 108.35 17.0377C108.585 17.9923 109.086 18.4696 109.853 18.4696Z" fill="white"/>
</g>
<g filter="url(#filter6_d_2_1511)">
<path d="M122.483 10.0796C123.548 10.0796 124.527 10.2511 125.419 10.5942C126.312 10.9372 127.017 11.4071 127.534 12.0037C128.05 12.6003 128.309 13.2491 128.309 13.9501V21.557C128.309 21.6614 128.278 21.7434 128.215 21.8031C128.152 21.8629 128.066 21.8926 127.956 21.8926H124.245C124.135 21.8926 124.049 21.8629 123.986 21.8031C123.924 21.7434 123.892 21.6614 123.892 21.557V20.774C123.892 20.7143 123.877 20.6844 123.845 20.6844C123.83 20.6696 123.806 20.6844 123.775 20.7293C123.509 21.1916 123.141 21.5347 122.671 21.7584C122.201 21.9673 121.582 22.0716 120.815 22.0716C119.531 22.0716 118.52 21.7957 117.784 21.2439C117.048 20.677 116.68 19.8567 116.68 18.7827C116.68 17.6491 117.095 16.7766 117.925 16.1651C118.771 15.5536 119.993 15.2479 121.59 15.2479H123.775C123.853 15.2479 123.892 15.2106 123.892 15.1359V14.7331C123.892 14.42 123.767 14.1664 123.517 13.9725C123.282 13.7786 122.96 13.6817 122.553 13.6817C122.271 13.6817 122.021 13.7264 121.802 13.8159C121.582 13.9054 121.426 14.0247 121.332 14.1739C121.269 14.2783 121.207 14.3529 121.144 14.3976C121.097 14.4274 121.026 14.4349 120.932 14.42L117.15 13.9725C116.931 13.9427 116.821 13.8532 116.821 13.704C116.884 13.0328 117.166 12.4213 117.667 11.8694C118.168 11.3176 118.834 10.885 119.664 10.5718C120.509 10.2437 121.449 10.0796 122.483 10.0796ZM122.177 19.1631C122.679 19.1631 123.086 19.0363 123.399 18.7827C123.728 18.5291 123.892 18.1861 123.892 17.7536V17.4627C123.892 17.3881 123.853 17.3509 123.775 17.3509H122.6C121.614 17.3509 121.12 17.6567 121.12 18.2681C121.12 18.5367 121.207 18.753 121.379 18.917C121.567 19.0811 121.833 19.1631 122.177 19.1631Z" fill="white"/>
</g>
<g filter="url(#filter7_d_2_1511)">
<path d="M132.022 22.0716C131.379 22.0716 130.847 21.8777 130.424 21.4898C130.017 21.0871 129.813 20.5801 129.813 19.9686C129.813 19.3421 130.017 18.835 130.424 18.4471C130.847 18.0594 131.379 17.8654 132.022 17.8654C132.664 17.8654 133.188 18.0594 133.595 18.4471C134.018 18.835 134.23 19.3421 134.23 19.9686C134.23 20.5651 134.018 21.0648 133.595 21.4676C133.173 21.8703 132.648 22.0716 132.022 22.0716Z" fill="white"/>
</g>
<g filter="url(#filter8_d_2_1511)">
<path d="M138.286 9.47547C137.644 9.47547 137.111 9.28157 136.689 8.89377C136.281 8.49106 136.078 7.98393 136.078 7.37239C136.078 6.74595 136.281 6.23882 136.689 5.85102C137.111 5.46322 137.644 5.26932 138.286 5.26932C138.928 5.26932 139.453 5.46322 139.86 5.85102C140.283 6.23882 140.494 6.74595 140.494 7.37239C140.494 7.96902 140.283 8.46869 139.86 8.8714C139.453 9.27412 138.928 9.47547 138.286 9.47547ZM136.407 21.8925C136.297 21.8925 136.211 21.8628 136.148 21.8031C136.086 21.7434 136.054 21.6614 136.054 21.557V10.5941C136.054 10.4897 136.086 10.4077 136.148 10.348C136.211 10.2884 136.297 10.2585 136.407 10.2585H140.119C140.228 10.2585 140.314 10.2884 140.377 10.348C140.44 10.4077 140.471 10.4897 140.471 10.5941V21.557C140.471 21.6614 140.44 21.7434 140.377 21.8031C140.314 21.8628 140.228 21.8925 140.119 21.8925H136.407Z" fill="white"/>
</g>
<g filter="url(#filter9_d_2_1511)">
<path d="M149.584 6.56698C149.584 6.46257 149.615 6.38054 149.677 6.32088C149.74 6.26121 149.826 6.23138 149.936 6.23138H153.648C153.757 6.23138 153.843 6.26121 153.906 6.32088C153.969 6.38054 154 6.46257 154 6.56698V21.557C154 21.6614 153.969 21.7434 153.906 21.8031C153.843 21.8629 153.757 21.8926 153.648 21.8926H149.936C149.826 21.8926 149.74 21.8629 149.677 21.8031C149.615 21.7434 149.584 21.6614 149.584 21.557V20.8859C149.584 20.8411 149.568 20.8113 149.536 20.7963C149.505 20.7814 149.474 20.7963 149.443 20.8411C148.863 21.6614 147.955 22.0716 146.717 22.0716C145.668 22.0716 144.721 21.7584 143.875 21.132C143.045 20.4906 142.458 19.6254 142.113 18.5367C141.878 17.7909 141.761 16.9556 141.761 16.0309C141.761 14.957 141.933 14.0024 142.277 13.1671C142.653 12.2572 143.241 11.5189 144.039 10.9521C144.838 10.3704 145.793 10.0796 146.905 10.0796C148.049 10.0796 148.894 10.4226 149.443 11.1087C149.474 11.1386 149.505 11.1535 149.536 11.1535C149.568 11.1386 149.584 11.1087 149.584 11.064V6.56698ZM149.231 17.7089C149.466 17.2763 149.584 16.7393 149.584 16.098C149.584 15.382 149.458 14.8079 149.208 14.3753C148.926 13.9129 148.519 13.6817 147.986 13.6817C147.422 13.6817 147.007 13.9278 146.741 14.42C146.506 14.8376 146.389 15.397 146.389 16.098C146.389 16.7691 146.506 17.3136 146.741 17.7313C147.023 18.2234 147.438 18.4696 147.986 18.4696C148.534 18.4696 148.949 18.216 149.231 17.7089Z" fill="white"/>
</g>
</g>
<defs>
<filter id="filter0_d_2_1511" x="0" y="0" width="158" height="38" filterUnits="userSpaceOnUse" color-interpolation-filters="sRGB">
<feFlood flood-opacity="0" result="BackgroundImageFix"/>
<feColorMatrix in="SourceAlpha" type="matrix" values="0 0 0 0 0 0 0 0 0 0 0 0 0 0 0 0 0 0 127 0" result="hardAlpha"/>
<feOffset dy="4"/>
<feGaussianBlur stdDeviation="2"/>
<feComposite in2="hardAlpha" operator="out"/>
<feColorMatrix type="matrix" values="0 0 0 0 0 0 0 0 0 0 0 0 0 0 0 0 0 0 0.25 0"/>
<feBlend mode="normal" in2="BackgroundImageFix" result="effect1_dropShadow_2_1511"/>
<feBlend mode="normal" in="SourceGraphic" in2="effect1_dropShadow_2_1511" result="shape"/>
</filter>
<filter id="filter1_d_2_1511" x="39.3442" y="6.0524" width="20.9205" height="24.0192" filterUnits="userSpaceOnUse" color-interpolation-filters="sRGB">
<feFlood flood-opacity="0" result="BackgroundImageFix"/>
<feColorMatrix in="SourceAlpha" type="matrix" values="0 0 0 0 0 0 0 0 0 0 0 0 0 0 0 0 0 0 127 0" result="hardAlpha"/>
<feOffset dy="4"/>
<feGaussianBlur stdDeviation="2"/>
<feComposite in2="hardAlpha" operator="out"/>
<feColorMatrix type="matrix" values="0 0 0 0 0 0 0 0 0 0 0 0 0 0 0 0 0 0 0.25 0"/>
<feBlend mode="normal" in2="BackgroundImageFix" result="effect1_dropShadow_2_1511"/>
<feBlend mode="normal" in="SourceGraphic" in2="effect1_dropShadow_2_1511" result="shape"/>
</filter>
<filter id="filter2_d_2_1511" x="53.4761" y="10.0796" width="19.981" height="19.992" filterUnits="userSpaceOnUse" color-interpolation-filters="sRGB">
<feFlood flood-opacity="0" result="BackgroundImageFix"/>
<feColorMatrix in="SourceAlpha" type="matrix" values="0 0 0 0 0 0 0 0 0 0 0 0 0 0 0 0 0 0 127 0" result="hardAlpha"/>
<feOffset dy="4"/>
<feGaussianBlur stdDeviation="2"/>
<feComposite in2="hardAlpha" operator="out"/>
<feColorMatrix type="matrix" values="0 0 0 0 0 0 0 0 0 0 0 0 0 0 0 0 0 0 0.25 0"/>
<feBlend mode="normal" in2="BackgroundImageFix" result="effect1_dropShadow_2_1511"/>
<feBlend mode="normal" in="SourceGraphic" in2="effect1_dropShadow_2_1511" result="shape"/>
</filter>
<filter id="filter3_d_2_1511" x="66.6257" y="10.0796" width="26.3706" height="19.813" filterUnits="userSpaceOnUse" color-interpolation-filters="sRGB">
<feFlood flood-opacity="0" result="BackgroundImageFix"/>
<feColorMatrix in="SourceAlpha" type="matrix" values="0 0 0 0 0 0 0 0 0 0 0 0 0 0 0 0 0 0 127 0" result="hardAlpha"/>
<feOffset dy="4"/>
<feGaussianBlur stdDeviation="2"/>
<feComposite in2="hardAlpha" operator="out"/>
<feColorMatrix type="matrix" values="0 0 0 0 0 0 0 0 0 0 0 0 0 0 0 0 0 0 0.25 0"/>
<feBlend mode="normal" in2="BackgroundImageFix" result="effect1_dropShadow_2_1511"/>
<feBlend mode="normal" in="SourceGraphic" in2="effect1_dropShadow_2_1511" result="shape"/>
</filter>
<filter id="filter4_d_2_1511" x="86.5405" y="10.0796" width="20.2393" height="23.8403" filterUnits="userSpaceOnUse" color-interpolation-filters="sRGB">
<feFlood flood-opacity="0" result="BackgroundImageFix"/>
<feColorMatrix in="SourceAlpha" type="matrix" values="0 0 0 0 0 0 0 0 0 0 0 0 0 0 0 0 0 0 127 0" result="hardAlpha"/>
<feOffset dy="4"/>
<feGaussianBlur stdDeviation="2"/>
<feComposite in2="hardAlpha" operator="out"/>
<feColorMatrix type="matrix" values="0 0 0 0 0 0 0 0 0 0 0 0 0 0 0 0 0 0 0.25 0"/>
<feBlend mode="normal" in2="BackgroundImageFix" result="effect1_dropShadow_2_1511"/>
<feBlend mode="normal" in="SourceGraphic" in2="effect1_dropShadow_2_1511" result="shape"/>
</filter>
<filter id="filter5_d_2_1511" x="99.8158" y="10.0796" width="20.0748" height="19.992" filterUnits="userSpaceOnUse" color-interpolation-filters="sRGB">
<feFlood flood-opacity="0" result="BackgroundImageFix"/>
<feColorMatrix in="SourceAlpha" type="matrix" values="0 0 0 0 0 0 0 0 0 0 0 0 0 0 0 0 0 0 127 0" result="hardAlpha"/>
<feOffset dy="4"/>
<feGaussianBlur stdDeviation="2"/>
<feComposite in2="hardAlpha" operator="out"/>
<feColorMatrix type="matrix" values="0 0 0 0 0 0 0 0 0 0 0 0 0 0 0 0 0 0 0.25 0"/>
<feBlend mode="normal" in2="BackgroundImageFix" result="effect1_dropShadow_2_1511"/>
<feBlend mode="normal" in="SourceGraphic" in2="effect1_dropShadow_2_1511" result="shape"/>
</filter>
<filter id="filter6_d_2_1511" x="112.68" y="10.0796" width="19.6284" height="19.992" filterUnits="userSpaceOnUse" color-interpolation-filters="sRGB">
<feFlood flood-opacity="0" result="BackgroundImageFix"/>
<feColorMatrix in="SourceAlpha" type="matrix" values="0 0 0 0 0 0 0 0 0 0 0 0 0 0 0 0 0 0 127 0" result="hardAlpha"/>
<feOffset dy="4"/>
<feGaussianBlur stdDeviation="2"/>
<feComposite in2="hardAlpha" operator="out"/>
<feColorMatrix type="matrix" values="0 0 0 0 0 0 0 0 0 0 0 0 0 0 0 0 0 0 0.25 0"/>
<feBlend mode="normal" in2="BackgroundImageFix" result="effect1_dropShadow_2_1511"/>
<feBlend mode="normal" in="SourceGraphic" in2="effect1_dropShadow_2_1511" result="shape"/>
</filter>
<filter id="filter7_d_2_1511" x="125.813" y="17.8654" width="12.4165" height="12.2061" filterUnits="userSpaceOnUse" color-interpolation-filters="sRGB">
<feFlood flood-opacity="0" result="BackgroundImageFix"/>
<feColorMatrix in="SourceAlpha" type="matrix" values="0 0 0 0 0 0 0 0 0 0 0 0 0 0 0 0 0 0 127 0" result="hardAlpha"/>
<feOffset dy="4"/>
<feGaussianBlur stdDeviation="2"/>
<feComposite in2="hardAlpha" operator="out"/>
<feColorMatrix type="matrix" values="0 0 0 0 0 0 0 0 0 0 0 0 0 0 0 0 0 0 0.25 0"/>
<feBlend mode="normal" in2="BackgroundImageFix" result="effect1_dropShadow_2_1511"/>
<feBlend mode="normal" in="SourceGraphic" in2="effect1_dropShadow_2_1511" result="shape"/>
</filter>
<filter id="filter8_d_2_1511" x="132.054" y="5.26932" width="12.4398" height="24.6232" filterUnits="userSpaceOnUse" color-interpolation-filters="sRGB">
<feFlood flood-opacity="0" result="BackgroundImageFix"/>
<feColorMatrix in="SourceAlpha" type="matrix" values="0 0 0 0 0 0 0 0 0 0 0 0 0 0 0 0 0 0 127 0" result="hardAlpha"/>
<feOffset dy="4"/>
<feGaussianBlur stdDeviation="2"/>
<feComposite in2="hardAlpha" operator="out"/>
<feColorMatrix type="matrix" values="0 0 0 0 0 0 0 0 0 0 0 0 0 0 0 0 0 0 0.25 0"/>
<feBlend mode="normal" in2="BackgroundImageFix" result="effect1_dropShadow_2_1511"/>
<feBlend mode="normal" in="SourceGraphic" in2="effect1_dropShadow_2_1511" result="shape"/>
</filter>
<filter id="filter9_d_2_1511" x="137.761" y="6.23138" width="20.2393" height="23.8402" filterUnits="userSpaceOnUse" color-interpolation-filters="sRGB">
<feFlood flood-opacity="0" result="BackgroundImageFix"/>
<feColorMatrix in="SourceAlpha" type="matrix" values="0 0 0 0 0 0 0 0 0 0 0 0 0 0 0 0 0 0 127 0" result="hardAlpha"/>
<feOffset dy="4"/>
<feGaussianBlur stdDeviation="2"/>
<feComposite in2="hardAlpha" operator="out"/>
<feColorMatrix type="matrix" values="0 0 0 0 0 0 0 0 0 0 0 0 0 0 0 0 0 0 0.25 0"/>
<feBlend mode="normal" in2="BackgroundImageFix" result="effect1_dropShadow_2_1511"/>
<feBlend mode="normal" in="SourceGraphic" in2="effect1_dropShadow_2_1511" result="shape"/>
</filter>
<clipPath id="clip0_2_1511">
<rect width="150" height="30" fill="white" transform="translate(4)"/>
</clipPath>
</defs>
</svg>
